<?xml version="1.0" encoding="UTF-8" standalone="no"?>
<!-- Created with Inkscape (http://www.inkscape.org/) -->

<svg
   width="248.81323mm"
   height="17.289869mm"
   viewBox="0 0 248.81323 17.289869"
   version="1.1"
   id="svg1"
   xmlns="http://www.w3.org/2000/svg"
   xmlns:svg="http://www.w3.org/2000/svg">
  <defs
     id="defs1" />
  <g
     id="layer1"
     transform="translate(23.414074,-137.18545)">
    <path
       id="path109"
       style="fill:#000000;fill-opacity:1;stroke-width:1.413;paint-order:fill markers stroke"
       d="m 208.65755,137.24124 c -14.61793,0.10429 32.11924,-0.22514 -31.20378,0.0713 -0.82029,0.004 -1.63926,0.0701 -2.45928,0.0915 -2.7923,0.073 -5.58742,0.0746 -8.38037,0.11058 -4.51841,-0.01 -9.0389,-0.0182 -13.55473,0.154 -2.74636,0.0721 -5.46551,0.49168 -8.20105,0.71882 -3.15876,0.16201 -6.31989,0.28557 -9.48107,0.39946 -1.58877,0.052 -3.17774,0.0861 -4.76715,0.10955 -2.68995,-0.0512 -5.37936,-0.13095 -8.06876,-0.21136 -5.79657,-0.3356 -11.60233,-0.43363 -17.40307,-0.66972 -15.184376,-0.5059 -30.390943,-0.27812 -45.577584,-0.25632 -1.236353,0.0394 -2.473484,0.0655 -3.709335,0.11834 -2.341726,0.1002 -5.114907,0.29097 -7.454842,0.42633 -3.413832,0.19747 -6.827908,0.35204 -10.244853,0.48214 -3.382275,0.1783 -6.771949,0.0341 -10.154935,0.15813 -0.860629,0.0315 -1.939649,0.12047 -2.815849,0.18707 -2.405495,0.11464 -4.762166,0.66084 -7.121012,1.10329 -0.891415,0.16721 -1.785925,0.31732 -2.678907,0.47594 -1.122937,0.1955 -2.240497,0.42476 -3.368786,0.58653 -2.6216261,0.37589 -6.8621271,0.78603 -9.4221642,0.99994 -4.8704118,0.40696 -9.7496932,0.65191 -14.6301148,0.89659 -3.793081,0.22296 -7.582875,0.49606 -11.373983,0.74827 l 27.0040368,4.00854 c 2.8952523,-0.40249 5.7957687,-0.76644 8.7002442,-1.09605 0.881677,-0.10001 6.65602,-0.7567 7.225399,-0.81339 0.631089,-0.0628 1.262365,-0.1225 1.893941,-0.17932 -0.256373,0.0916 -0.522524,0.18554 -0.806152,0.28887 -2.728159,0.82663 -5.555301,1.32242 -8.386052,1.63918 -0.65502,0.0451 -1.311126,0.0368 -1.966805,0.0217 l 28.94397,4.34754 c 0.548722,-0.11474 1.096849,-0.23452 1.634009,-0.39687 2.318276,-0.72507 4.654859,-1.39605 6.91379,-2.29805 2.60999,-0.98744 5.20544,-2.01079 7.760249,-3.13418 0.563694,-0.22455 1.124234,-0.49663 1.699121,-0.6904 0.85099,-0.28682 1.740569,-0.46442 2.60966,-0.68264 1.800576,-0.3426 3.618382,-0.56552 5.441012,-0.74776 0.212923,0.0117 0.425815,0.0239 0.638721,0.0362 2.62863,-0.008 5.257261,-0.046 7.885823,-0.005 2.561545,0.0672 5.123941,0.15652 7.668266,0.47594 0.422203,0.078 0.609595,0.11374 0.677995,0.12713 -0.03939,-0.008 -0.101665,-0.0226 -0.112655,-0.0295 l -5.17e-4,-5.1e-4 h -5.16e-4 v -5.2e-4 -5.2e-4 -5.1e-4 h 5.16e-4 l 5.17e-4,-5.2e-4 h 5.17e-4 c 0.01674,-0.005 0.154904,0.007 0.59893,0.0682 0.174514,0.024 0.343977,0.0807 0.519348,0.0971 0.538449,0.0509 1.093455,-0.0409 1.629874,0.0677 1.465527,0.21259 2.912514,0.5012 4.354773,0.83612 1.051325,0.16881 2.069835,0.37466 3.098003,0.65371 0.422254,0.11461 1.126726,0.29652 1.551326,0.48111 0.140388,0.061 0.265276,0.15301 0.397909,0.22944 l 7.084842,-0.92966 h 5.1e-4 c 0.63427,0.1297 1.26984,0.2543 1.9079,0.36587 2.69225,0.44061 5.36155,0.99491 8.02328,1.58854 0.30206,0.0554 0.60267,0.11772 0.90589,0.16639 1.23348,0.19799 0.92505,0.0959 2.12803,0.33487 0.90524,0.17981 1.8061,0.39643 2.70992,0.58497 2.65992,0.45224 5.28007,1.09827 7.90546,1.7136 2.40656,0.56372 4.85807,0.88385 7.30188,1.23299 3.07235,0.36516 6.13058,0.83395 9.1953,1.25523 3.42589,0.38589 6.87123,0.54712 10.30686,0.8232 0.36544,0.0316 0.73062,0.0635 1.09606,0.0951 l 27.835,-4.28243 c -0.49198,-0.007 -0.98391,-0.013 -1.47588,-0.0196 -3.3696,-0.0875 -6.73504,-0.27713 -10.08414,-0.67076 -3.11136,-0.30195 -6.20886,-0.72541 -9.30383,-1.16272 -2.34884,-0.34407 -4.65782,-0.94248 -7.03213,-1.13016 -1.3605,-0.21907 -2.72777,-0.44812 -4.06383,-0.7922 -0.78341,-0.20175 -1.54925,-0.46657 -2.32854,-0.68368 -0.32055,-0.0893 -0.6432,-0.17085 -0.9648,-0.25631 -0.95686,-0.2146 -1.91898,-0.39544 -2.87786,-0.59893 -0.23655,-0.0502 -1.77089,-0.41584 -2.0314,-0.46354 -0.34125,-0.0625 -0.68648,-0.0982 -1.02991,-0.14728 -2.39359,-0.27048 -4.78615,-0.6297 -7.13652,-1.16479 6.17903,-0.005 12.35812,0.006 18.53686,0.0512 4.02229,-0.007 8.04566,3e-5 12.06644,-0.12712 3.16724,-0.13082 6.33408,-0.28287 9.49555,-0.5178 2.70274,-0.21847 5.40323,-0.45953 8.1101,-0.6227 2.11047,-0.1014 4.22233,-0.17353 6.33449,-0.22841 1.1971,0.051 2.3933,0.12498 3.58686,0.23823 0.99113,0.10842 1.96955,0.19327 2.94969,0.38137 0.93186,0.17884 1.83072,0.54081 2.78175,0.61495 l 29.30415,-4.64158 c -0.22591,0.01 -0.45219,0.0175 -0.67799,0.0295 -0.80906,0.0429 -1.19154,0.0936 -2.03605,0.0687 -1.6522,-0.0487 -3.29266,-0.28102 -4.932,-0.47387 -3.01605,-0.42337 -6.05391,-0.57533 -9.09557,-0.63407 z m -86.42057,1.74252 c -0.10346,0.001 -0.2071,0.002 -0.31057,0.004 -0.83567,0.009 -1.67162,0.014 -2.50734,0.0145 -0.85472,5.3e-4 -3.41891,-0.0103 -2.56419,-0.0114 1.90503,-0.003 3.69754,-0.005 5.3821,-0.007 z m 78.47428,2.4598 c 1.03361,-0.002 4.1342,0.0185 3.10059,0.0202 -2.11417,0.004 -4.10746,0.005 -5.97793,0.005 0.95908,-0.0128 1.91835,-0.0227 2.87734,-0.0248 z m -152.299745,2.26136 c 3.339819,0.0373 6.681685,-0.007 10.01851,0.17002 0.696268,0.0336 1.392503,0.066 2.088762,0.0987 -3.466035,-0.0656 -7.479213,-0.15346 -12.107272,-0.26872 z m 22.573299,0.0868 c 7.832803,-0.3389 17.930915,0.59034 -4.327384,0.2837 0.205087,-0.0187 0.409838,-0.0375 0.61495,-0.0558 1.236573,-0.0834 2.474123,-0.17431 3.712434,-0.22789 z" />
  </g>
</svg>
