<?xml version="1.0" encoding="UTF-8" standalone="no"?>
<!-- Created with Inkscape (http://www.inkscape.org/) -->

<svg
   width="216.56822mm"
   height="60.73658mm"
   viewBox="0 0 216.56822 60.73658"
   version="1.1"
   id="svg1"
   xmlns="http://www.w3.org/2000/svg"
   xmlns:svg="http://www.w3.org/2000/svg">
  <defs
     id="defs1" />
  <g
     id="layer1"
     transform="translate(-0.31522623,-35.866828)">
    <path
       id="path35"
       style="fill:#121821;fill-opacity:1;stroke-width:1.53617;paint-order:fill markers stroke"
       d="m 160.85943,35.869128 c -8.5207,0.137767 -17.10513,-0.192353 -25.54934,1.175122 -0.49748,0.133726 -0.98813,0.285937 -1.47433,0.451136 -8.78239,-0.0252 -17.56426,-0.06457 -26.34671,-0.04186 -0.2748,-0.13357 -0.56605,-0.239728 -0.87954,-0.309025 -0.31299,-0.07022 -0.63402,-0.07893 -0.95343,-0.06821 -4.42568,0.263771 -8.775277,1.415817 -13.214177,1.443839 -0.252622,-0.0053 -0.505468,-0.01057 -0.758094,-0.0155 -7.109624,-1.011172 -14.311116,-1.098419 -21.477758,-0.892968 -3.20649,0.07332 -6.436813,0.141173 -9.586495,0.805635 -2.992807,0.546529 -6.020301,0.981898 -9.069731,0.946196 -7.423218,0.237967 -14.951267,-0.439646 -22.268925,1.153418 -3.082126,0.7124 -6.151768,1.541032 -9.309509,1.846915 -1.051129,0.157614 -2.119639,0.384679 -3.045809,0.929143 -0.309131,0.670593 0.49738,1.191405 1.084688,1.21853 3.142345,0.857324 6.23709,2.101082 9.536369,2.170927 2.007992,0.01695 4.016185,-0.05559 6.024955,-0.02687 6.622705,-0.0051 13.245327,-0.0069 19.868038,-0.0052 -0.353231,0.08503 -0.707519,0.164606 -1.062984,0.239779 -8.818879,0.02418 -17.637904,0.04868 -26.456783,0.07286 1.09033,0.514102 2.134597,1.124727 3.119189,1.820044 4.223354,0.104704 8.447054,0.177797 12.671062,0.221692 -0.005,0.0017 -0.01002,0.0035 -0.01499,0.0052 0.83208,0.384059 1.760971,-0.0032 2.629297,0.1757 1.491291,0.02301 2.982375,0.03917 4.473629,0.04961 -0.430164,0.01022 -0.860245,0.02129 -1.290361,0.03307 -6.010185,-0.01733 -12.02046,-0.09249 -18.03094,-0.240813 0.465127,0.857934 1.174359,1.562079 1.563729,2.465483 0.09727,0.165229 0.194048,0.331354 0.290938,0.497127 l -5.056539,-0.523482 c -0.08113,0.08105 -0.147817,0.172936 -0.243396,0.243396 -0.104805,0.07712 -0.237909,0.1263 -0.3514,0.195337 -0.309519,0.188256 -0.596563,0.399589 -0.904854,0.589111 -0.50411,0.309896 -0.669155,0.407461 -0.687813,0.414445 h -5.17e-4 -5.17e-4 v -5.17e-4 l 5.17e-4,-5.16e-4 v -5.17e-4 c 0.01,-0.0096 0.09249,-0.06343 0.160197,-0.107487 -0.10505,0.06749 -0.313192,0.200823 -0.687297,0.439766 -0.619342,0.533098 -1.280088,1.032078 -1.937866,1.534274 -0.199361,0.152203 -0.382848,0.318451 -0.593762,0.460437 -0.07211,0.04845 -0.998319,0.561445 -1.100191,0.61805 -0.666433,0.273476 -1.302996,0.597025 -1.930115,0.925008 -0.167796,0.08784 -0.349755,0.160215 -0.501262,0.2651 -0.0044,0.0031 -0.009,0.0062 -0.01344,0.0093 6.461514,0.05606 12.923087,0.135111 19.384346,0.226859 0.141655,0.0851 0.284428,0.167798 0.428398,0.248047 -0.07321,-10e-4 -0.146419,-0.0015 -0.219625,-0.0026 -0.833802,-0.01186 -1.667366,-0.02371 -2.501139,-0.03514 -0.0056,0.0018 -0.01098,0.0039 -0.01654,0.0057 -5.785864,-0.0793 -11.571863,-0.153546 -17.358114,-0.203089 -0.05589,0.05227 -0.1119,0.104582 -0.170015,0.15503 -0.172811,0.165215 -0.650985,0.599378 -0.773079,0.806152 -0.32432,0.549266 -0.426159,1.250892 -0.341065,1.847949 0.03059,0.213926 0.09943,0.422684 0.154513,0.633553 2.30482,0.100673 4.609882,0.208173 6.916373,0.243396 2.239808,0.0342 4.479961,0.03101 6.720004,0.02119 -0.06986,0.07836 -0.136835,0.158987 -0.200505,0.242362 -2.176157,0.0092 -4.35234,0.01152 -6.528284,-0.0217 -2.261774,-0.03455 -4.521925,-0.138266 -6.782015,-0.237195 0.130184,0.235863 0.243733,0.480613 0.448035,0.677478 0.945158,0.910736 2.141999,1.150078 3.507796,1.589051 2.155286,0.69272 4.366611,1.279587 6.549988,1.914611 -0.306511,0.471379 -0.591634,0.95609 -0.838708,1.463477 0.129149,0.617103 0.488265,1.101884 0.962732,1.460893 -0.802158,0.09198 -1.603572,0.192402 -2.402955,0.307991 -0.316817,0.04207 -0.633513,0.08451 -0.950329,0.126607 -0.352294,0.547572 0.324931,1.326711 0.919324,1.084172 2.56229,0.01484 5.124584,0.02978 7.686869,0.04496 6.810002,1.628148 13.782652,2.444561 20.780644,2.722315 -1.037331,0.06821 -2.074888,0.139073 -3.111955,0.21239 1.925062,-0.04321 3.850338,-0.08752 5.775358,-0.132292 2.701254,0.05612 5.403862,0.03743 8.099764,-0.04082 -0.133382,0.03575 -0.267095,0.06898 -0.401009,0.09974 -5.132994,0.124882 -10.266337,0.244292 -15.399577,0.358117 -0.162145,0.03138 -0.32413,0.06266 -0.486275,0.09405 -1.026223,0.01367 -2.052143,0.02715 -3.078365,0.04082 -0.448198,0.275264 -0.896423,0.550525 -1.344621,0.825789 -0.494269,0.09893 -0.98878,0.199114 -1.482597,0.30024 -0.178576,-0.0397 -0.346769,0.07033 -0.432015,0.223759 -0.927548,-0.05761 -1.854587,-0.118538 -2.781742,-0.183451 -5.190883,-0.329968 -10.381875,-0.716464 -15.577861,-0.927075 -0.0841,0.0058 -0.168086,0.0118 -0.252181,0.01757 -2.429907,0.07079 -4.738224,0.924047 -6.959782,1.83658 -1.84273,0.620173 -3.731365,1.101927 -5.6420325,1.460376 -0.3479421,0.339551 0.2228795,0.872736 0.5937625,0.673861 0.484184,0.01613 0.958897,0.10982 1.440739,0.14521 0.0019,0.0075 0.0021,0.01149 0.0046,0.02067 0.005,0.0031 0.0095,0.0042 0.0124,0.0041 2.72e-4,-4e-5 0.0013,6.7e-5 0.0015,0 2.35e-4,-9.4e-5 0.0013,-9.13e-4 0.0015,-10e-4 l 5.17e-4,-5.17e-4 5.17e-4,-5.17e-4 5.17e-4,-5.17e-4 5.16e-4,-5.16e-4 c 0.0021,-0.0039 0.0014,-0.01107 0,-0.01912 3.187625,0.235955 6.336232,0.791503 9.481075,1.37201 -0.139428,0.01921 -0.278675,0.03891 -0.418062,0.05839 7.21e-4,-0.0011 0.0013,-0.0028 0.0016,-0.0036 v -5.17e-4 -5.17e-4 -5.17e-4 h -5.16e-4 v -5.17e-4 h -5.17e-4 -5.17e-4 -5.17e-4 -5.16e-4 c -0.0026,9.2e-5 -0.0071,0.0018 -0.01499,0.0057 -5.38e-4,8.53e-4 -0.0011,0.0013 -0.0015,0.0021 -2.588719,0.362013 -5.169816,0.772754 -7.731311,1.307414 -0.261095,0.04936 -0.512337,0.141516 -0.773079,0.192753 0.0058,0.0036 0.01269,0.0085 0.02119,0.01602 0.0036,0.03069 0.0017,0.04727 -0.0026,0.05323 -1.89e-4,2.15e-4 -0.0014,8.52e-4 -0.0015,10e-4 l -5.17e-4,5.16e-4 -5.17e-4,5.17e-4 c -2.21e-4,8.8e-5 -0.0013,-5.8e-5 -0.0015,0 h -5.17e-4 c -2.42e-4,10e-7 -0.0013,2.7e-5 -0.0015,0 -2.54e-4,-5.4e-5 -0.0013,-4.36e-4 -0.0015,-5.17e-4 -0.01364,-0.0054 -0.03367,-0.0441 -0.03462,-0.06459 -3.719796,0.731812 -7.4128371,1.611708 -11.0293014,2.75022 -0.61061872,0.518408 0.1531355,1.581455 0.8526611,1.257287 1.4037807,0.08814 2.7926891,0.278847 4.1821737,0.465605 1.763e-4,0.01458 6.871e-4,0.03143 0.00258,0.05839 0.00484,0.0091 0.009,0.01497 0.011886,0.01705 2.279e-4,1.31e-4 0.00133,4.26e-4 0.00155,5.16e-4 h 5.168e-4 5.167e-4 5.168e-4 l 5.168e-4,-5.16e-4 5.167e-4,-5.17e-4 5.168e-4,-5.17e-4 v -5.17e-4 l 5.167e-4,-5.17e-4 5.168e-4,-5.16e-4 c 0.0041,-0.0103 5.123e-4,-0.04379 -0.00465,-0.0708 6.1162335,0.823574 12.1054905,2.469645 17.9890825,4.30413 2.387084,0.554334 4.846493,0.63167 7.279142,0.838192 0.951714,1.147576 2.575858,1.000337 3.915007,1.064018 5.320315,0.285527 10.65759,0.285571 15.98042,0.524515 0.01649,0.04755 0.03295,0.09448 0.05013,0.14056 0.672816,0.831761 1.843909,0.468153 2.759005,0.489893 1.698277,-0.01148 3.396502,-0.02315 5.094779,-0.03462 3.029569,0.350138 6.021298,0.993408 8.925554,1.92443 3.859543,1.136056 7.83248,2.139461 11.887129,2.014347 l 20.255089,0.542603 c 0.41341,-0.657552 0.82681,-1.314938 1.24024,-1.97249 18.87347,0.156324 37.75097,0.444913 56.6229,0.0078 2.02056,-0.470202 4.04336,-0.930705 6.05854,-1.423686 0.64592,-1.201551 2.17154,-1.391052 3.39721,-1.28726 6.02793,-0.69673 12.14673,-1.134958 18.00149,-2.80758 5.43551,-0.599395 10.81734,-2.283105 15.32619,-5.432227 1.9726,-1.350832 3.77807,-2.956529 5.32216,-4.782654 0.16817,-0.07541 0.33626,-0.150884 0.50436,-0.226343 2.70049,-1.285326 5.30835,-3.083035 6.79287,-5.75107 2.48071,-4.091293 3.1894,-8.98788 3.09386,-13.701489 -0.006,-3.563441 0.0138,-7.129721 -0.0491,-10.691337 -0.21751,-2.170793 -0.98005,-4.531846 -2.89026,-5.78466 -0.58874,-0.344707 -1.27779,-0.512352 -1.95905,-0.484725 -0.36793,0.02993 -0.7362,0.05864 -1.10433,0.08578 -0.006,-0.09433 -0.0129,-0.188886 -0.0196,-0.283187 l 1.86604,-0.09147 c -0.63611,-0.264711 -1.27945,-0.502859 -1.92857,-0.717786 -0.0326,-0.388814 -0.0687,-0.777156 -0.10852,-1.165303 -1.40369,0.01339 -2.80741,0.02692 -4.21111,0.04031 -0.01,-0.002 -0.0197,-0.0042 -0.0294,-0.0062 1.41153,-0.01727 2.82335,-0.03441 4.23488,-0.05168 -1.28765,-2.87455 -4.72604,-4.390468 -7.75508,-3.79305 -7.00866,-0.180524 -14.01856,-0.364036 -21.03024,-0.310576 -2.54764,0.106924 -5.09531,0.213987 -7.64295,0.320911 -4.44597,-0.43243 -8.92465,-0.433996 -13.38833,-0.424264 z M 12.382707,80.313961 c -0.0078,-0.0049 -0.01378,-0.0068 -0.01757,-0.0062 -2.67e-4,7.2e-5 -0.0013,4.18e-4 -0.0016,5.16e-4 h -5.16e-4 l -5.17e-4,5.17e-4 -5.17e-4,5.17e-4 -5.17e-4,5.17e-4 c -1.51e-4,2.14e-4 -9e-4,0.0013 -0.001,0.0015 -9.22e-4,0.002 -0.0017,0.0051 -0.0015,0.0083 0.008,-0.0016 0.01577,-0.0041 0.02377,-0.0057 z M 174.56454,36.324915 c 3.041,0.0082 6.08195,0.01659 9.12296,0.0248 -2.88103,0.03251 -5.76522,0.02182 -8.64961,0.02532 -0.15769,-0.01722 -0.31557,-0.03404 -0.47335,-0.05013 z m 4.96094,8.830468 c 0.003,0.0028 0.005,0.006 0.008,0.0088 -0.18746,0.0085 -0.3753,0.01683 -0.56276,0.02532 0.18493,-0.01141 0.37008,-0.02298 0.55501,-0.03411 z m -21.16409,0.937411 c -0.0277,0.0045 -0.0555,0.0089 -0.0832,0.01344 -6.99249,0.304642 -13.98499,0.60602 -20.97753,0.909505 0.72324,0.0044 1.44665,0.0091 2.1699,0.01447 -2.11094,0.08556 -4.22197,0.169996 -6.33295,0.253215 0.007,-0.02901 0.0152,-0.05771 0.0238,-0.0863 -0.73999,0.02914 -1.48003,0.05799 -2.22002,0.08682 0.571,0.0062 1.14158,0.01239 1.71256,0.0186 -0.0415,0.0016 -0.083,0.003 -0.12454,0.0047 0.0306,3.33e-4 0.0614,7e-4 0.092,0.001 -0.70174,0.02708 -1.40355,0.05418 -2.1053,0.08113 -1.07696,8.41e-4 -2.15384,0.0026 -3.23081,0.0052 -5.67977,0.190472 -11.3604,0.388816 -17.04133,0.581877 0.006,-0.02636 0.0116,-0.0532 0.017,-0.07958 0.63779,-0.02347 1.27527,-0.04672 1.91306,-0.07028 3.78365,-0.131756 7.56737,-0.268653 11.35073,-0.410311 -0.0975,-10e-4 -0.19494,-0.0021 -0.29249,-0.0031 1.40314,-0.0531 2.80593,-0.106603 4.20905,-0.160197 0.0691,7.49e-4 0.13816,0.0013 0.20722,0.0021 0.5528,-0.02121 1.1055,-0.04217 1.6583,-0.06356 0.0293,3.14e-4 0.0586,7.19e-4 0.0879,0.001 0.18761,-0.0073 0.37513,-0.01443 0.56275,-0.0217 -0.002,-0.0014 -0.004,-0.0027 -0.006,-0.0041 3.4178,-0.132682 6.83557,-0.269209 10.25312,-0.408244 2.39191,-0.09399 4.78343,-0.188696 7.17527,-0.28422 0.003,0.02839 0.006,0.0569 0.007,0.08527 3.65837,-0.152843 7.3164,-0.308606 10.97452,-0.466638 z m -79.899513,2.738851 c 1.107974,0.0032 2.216258,0.0067 3.324345,0.0098 -2.945353,0.07294 -5.891128,0.138812 -8.83667,0.195854 -0.495565,5.95e-4 -0.991165,0.0016 -1.486731,0.0026 -0.01727,-0.0087 -0.03412,-0.01726 -0.05116,-0.02584 2.350255,-0.05429 4.700222,-0.116117 7.050215,-0.182417 z m -55.45708,4.841565 -0.07235,0.01188 z m 82.763423,5.749519 c 0.11043,0.02606 0.21878,0.05216 0.32556,0.07803 -1.20347,0.02097 -2.40711,0.03937 -3.61063,0.05943 0.27869,-0.03418 0.55743,-0.06812 0.83612,-0.10232 0.81618,-0.01575 1.63261,-0.02806 2.44895,-0.03514 z m 36.52904,0.425814 c 0.0411,0.0032 0.0824,0.0061 0.1235,0.0093 -0.11559,0.0075 -0.23115,0.0152 -0.34674,0.02274 -0.84788,0.0017 -1.69564,0.0035 -2.54352,0.0052 -0.0756,-0.0054 -0.15126,-0.01067 -0.22686,-0.01602 0.99794,-0.007 1.99568,-0.01415 2.99362,-0.02119 z m -64.258613,0.0021 c 0.210901,0.0019 0.421632,0.0039 0.63252,0.0067 -0.315241,0.01194 -0.630434,0.0238 -0.945679,0.03566 -0.05478,-0.0081 -0.109578,-0.01622 -0.164331,-0.02481 0.159114,-0.0059 0.318377,-0.01167 0.47749,-0.01757 z m 30.175933,0.222209 c 0.34576,0.104231 0.69003,0.21374 1.04387,0.331763 -3.41093,0.04705 -6.82189,0.08566 -10.23297,0.120923 0.02075,-0.01786 0.03987,-0.03806 0.05736,-0.06098 -0.106283,0.02598 -0.21211,0.04693 -0.318327,0.06356 -0.468727,0.0048 -0.937387,0.0092 -1.406116,0.01395 -0.453386,-0.04558 -0.90699,-0.123975 -1.361157,-0.189652 0.553431,-0.06723 1.106976,-0.134604 1.660364,-0.202055 3.519066,0.01164 7.037766,-0.0296 10.556976,-0.07751 z m 29.14551,0.218075 c 1.01636,0.07379 2.03175,0.162805 3.04736,0.247013 -1.06415,-0.0829 -2.12833,-0.162155 -3.19309,-0.237712 0.0486,-0.0031 0.0971,-0.0065 0.14573,-0.0093 z m -74.182034,0.0036 c 0.03216,0.02917 0.06441,0.0582 0.09663,0.08733 0.714473,-0.02395 1.429084,-0.04818 2.143538,-0.07286 0.01592,0.01076 0.03153,0.02097 0.04754,0.03152 -0.912491,0.03286 -1.824814,0.06571 -2.7373,0.0987 0.05937,0.0014 0.118905,0.0032 0.178284,0.0047 -1.855355,0.08127 -3.709338,0.196058 -5.558318,0.368453 -2.002274,0.05961 -4.004361,0.114525 -6.006868,0.163814 1.286281,-0.111357 2.572672,-0.229895 3.859713,-0.344165 2.507997,-0.07049 5.015903,-0.148682 7.523572,-0.232027 0.150772,-0.03594 0.301831,-0.07092 0.453202,-0.10542 z m 77.316724,0.250631 c 0.6176,0.05139 1.23583,0.09503 1.85312,0.150378 -0.001,0.0023 -0.003,0.0045 -0.005,0.0067 -0.61604,-0.0524 -1.23248,-0.104651 -1.84847,-0.157096 z m -76.948788,0.0801 c 0.0871,0.07785 0.174443,0.155513 0.262,0.233061 -0.459657,0.01602 -0.919581,0.03232 -1.379244,0.04806 L 61.558,60.804557 c -0.139778,0.01244 -0.266541,0.0238 -0.381372,0.03411 -0.0281,-0.0017 -0.05611,-0.0031 -0.08423,-0.0041 0.154472,-0.05236 0.311436,-0.100484 0.472323,-0.141077 0.660416,-0.02235 1.320876,-0.04526 1.981274,-0.06821 z m 78.770898,0.113688 c -0.23414,0.301722 -0.59994,0.132035 -0.94619,0.05788 0.3154,-0.01906 0.63082,-0.03811 0.94619,-0.05788 z M 41.052275,60.929097 c -0.05352,0.01509 -0.107528,0.02959 -0.161748,0.04341 -0.792469,0.104121 -1.572364,0.08129 -2.344559,-0.01602 0.8354,-0.0076 1.670967,-0.01687 2.506307,-0.02739 z m -16.468246,6.27507 -0.02636,0.03824 z m 77.310531,0.03204 -0.59583,0.08217 c -0.0504,6.13e-4 -0.10055,9.43e-4 -0.1509,0.0016 0.2489,-0.02791 0.49782,-0.05581 0.74673,-0.08372 z m -4.012163,0.04082 c 0.01146,-0.0019 0.03884,0.01128 0.0739,0.05064 -0.0084,7.6e-5 -0.01688,-7.5e-5 -0.02532,0 -0.03828,-0.01702 -0.05443,-0.03562 -0.05426,-0.04496 v -5.17e-4 -5.17e-4 l 5.17e-4,-5.16e-4 v -5.17e-4 l 5.17e-4,-5.17e-4 v -5.17e-4 l 5.16e-4,-5.17e-4 5.17e-4,-5.16e-4 h 5.17e-4 v -5.17e-4 h 5.17e-4 c 7.27e-4,-3.44e-4 0.0016,-8.78e-4 0.0026,-0.001 z m 36.525933,2.918169 c -0.0563,0.02325 -0.11275,0.04511 -0.1695,0.06511 -6.87698,0.294354 -13.75454,0.583302 -20.63336,0.832507 -0.12366,-0.04057 -0.24747,-0.08029 -0.37155,-0.119372 7.05866,-0.244202 14.11685,-0.504562 21.17441,-0.778247 z m -53.921253,1.787487 c -0.01794,0.0307 -0.03684,0.06073 -0.05633,0.09043 -3.265117,0.08731 -6.530043,0.172451 -9.795268,0.255282 0.226408,-0.03697 0.452683,-0.07375 0.679028,-0.111105 3.057615,-0.07429 6.115153,-0.152735 9.172567,-0.234611 z m -36.973454,0.814421 -0.04134,0.0155 z m -21.407996,0.356051 c -0.0026,4.23e-4 -0.0065,0.0026 -0.01188,0.0062 -0.0375,0.0625 -0.05166,0.09097 -0.05271,0.0987 v 5.16e-4 5.17e-4 5.17e-4 h 5.17e-4 5.16e-4 5.17e-4 5.17e-4 l 5.17e-4,-5.17e-4 c 0.01254,-0.0075 0.06696,-0.08527 0.06615,-0.102836 -3.8e-5,-2.35e-4 6.2e-5,-8.26e-4 0,-10e-4 l -5.17e-4,-5.17e-4 v -5.17e-4 h -5.17e-4 v -5.17e-4 h -5.17e-4 -5.17e-4 v -5.16e-4 h -5.16e-4 c -2.31e-4,-2.2e-5 -0.0013,-1.3e-5 -0.0016,0 z m -2.230871,0.236678 -0.03307,0.02894 z m 22.64823,0.168982 -0.01964,0.04289 z m -6.624919,0.32091 -0.07028,0.01964 z m 6.090068,0.03824 -0.03359,0.01395 z m -2.275314,0.08113 c -0.005,0.0065 -0.025,0.03236 -0.04496,0.05839 0.03993,-0.05207 0.04995,-0.0649 0.04496,-0.05839 z m -24.014038,0.702799 -0.03101,0.02946 z m -0.177767,0.04858 -5.16e-4,5.17e-4 c -0.0069,0.0028 -0.02243,0.01823 -0.05013,0.05478 -0.0023,0.01592 -0.0016,0.02567 5.16e-4,0.02997 l 5.17e-4,5.17e-4 c 1.57e-4,1.94e-4 8.64e-4,8.76e-4 10e-4,0.001 l 5.16e-4,5.17e-4 h 5.17e-4 5.17e-4 l 5.17e-4,5.17e-4 h 5.16e-4 l 5.17e-4,-5.17e-4 c 2.36e-4,-4.2e-5 0.0013,7.3e-5 0.0015,0 0.01604,-0.0064 0.04956,-0.07118 0.04754,-0.08527 v -5.17e-4 -5.16e-4 l -5.17e-4,-5.17e-4 -5.17e-4,-5.17e-4 h -5.17e-4 -5.16e-4 c -1.9e-4,5e-6 -0.0013,-3.8e-5 -0.0016,0 z m -0.219108,0.626835 c 0.0051,-8.01e-4 0.01153,-2.7e-5 0.02015,0.0026 -0.01256,0.07682 -0.05571,0.003 -0.02015,-0.0026 z m -1.383894,0.05116 -0.02377,0.02377 z m 1.160135,0.02067 h 5.17e-4 5.17e-4 5.17e-4 5.16e-4 5.17e-4 v 5.17e-4 h 5.17e-4 v 5.17e-4 l 5.17e-4,5.17e-4 v 5.16e-4 l 5.17e-4,5.17e-4 c 0.0013,0.0041 5.52e-4,0.01347 -0.0026,0.02997 -0.01743,0.02477 -0.028,0.0364 -0.03307,0.03927 h -5.17e-4 -5.17e-4 -5.17e-4 -5.16e-4 -5.17e-4 v -5.17e-4 h -5.17e-4 v -5.17e-4 l -5.17e-4,-5.17e-4 v -5.16e-4 c -0.0015,-0.0113 0.02339,-0.06272 0.03462,-0.06925 z m -1.277441,0.01085 c 5.34e-4,0.0339 0.0063,0.04864 0.0124,0.05219 l 5.17e-4,5.16e-4 h 5.17e-4 5.17e-4 5.16e-4 5.17e-4 5.17e-4 5.17e-4 c 0.01438,-0.0022 0.02725,-0.05455 -0.01602,-0.05271 z m -3.9940714,0.734323 c 0.00499,0.0065 0.025001,0.03236 0.044959,0.05839 -0.039923,-0.05207 -0.04995,-0.0649 -0.044959,-0.05839 z m -0.077515,0.08268 c 0.00126,0.0016 0.018473,0.02326 0.048059,0.05994 -0.034626,-0.04293 -0.049319,-0.06151 -0.048059,-0.05994 z m -0.021704,0.143144 -5.168e-4,5.16e-4 c -0.00757,0.0026 -0.03108,0.02169 -0.080098,0.06873 -0.015331,0.0254 -0.021857,0.03981 -0.022221,0.04547 v 5.17e-4 5.17e-4 l 5.168e-4,5.17e-4 v 5.16e-4 h 5.167e-4 5.168e-4 v 5.17e-4 h 5.168e-4 c 2.176e-4,-1.1e-5 0.0013,-4.64e-4 0.00155,-5.17e-4 0.017993,-0.0061 0.096536,-0.09761 0.1012858,-0.114721 v -5.17e-4 -5.17e-4 -5.17e-4 l -5.168e-4,-5.16e-4 h -5.168e-4 -5.167e-4 z m -1.7290934,0.03204 c 0.00329,0.0077 0.016445,0.03785 0.029455,0.06821 -0.026158,-0.06104 -0.032742,-0.07588 -0.029455,-0.06821 z m 3.4866088,0.07958 c 0.0076,-0.0019 0.02553,0.0042 0.05426,0.02791 -0.0379,0.0031 -0.05788,-0.01426 -0.0584,-0.02325 2.2e-5,-2.66e-4 4.57e-4,-7.85e-4 5.17e-4,-0.001 v -5.17e-4 -5.16e-4 h 5.17e-4 v -5.17e-4 h 5.16e-4 v -5.17e-4 h 5.17e-4 l 5.17e-4,-5.17e-4 c 2.52e-4,-1.38e-4 0.0013,-9.22e-4 0.0015,-0.001 z m -1.120345,0.0062 c 0.004,-2.3e-5 0.0095,7.06e-4 0.01654,0.0021 0.0069,0.01035 0.0093,0.01716 0.0088,0.02067 l -5.17e-4,5.17e-4 v 5.17e-4 l -5.17e-4,5.17e-4 v 5.17e-4 h -5.17e-4 v 5.16e-4 h -5.16e-4 -5.17e-4 v 5.17e-4 h -5.17e-4 c -0.0079,0.0019 -0.02827,-0.01145 -0.03152,-0.01964 -7.2e-5,-2.8e-4 -4.91e-4,-0.0013 -5.16e-4,-0.0016 l 5.16e-4,-5.17e-4 v -5.17e-4 -5.17e-4 l 5.17e-4,-5.16e-4 5.17e-4,-5.17e-4 h 5.17e-4 v -5.17e-4 h 5.17e-4 c 0.0016,-7.45e-4 0.0039,-0.0015 0.0072,-0.0015 z m -1.778186,0.310575 -0.019637,0.04496 z m -0.3209107,0.11989 c -7.393e-4,0.0022 -0.016141,0.04946 -0.044442,0.134358 0.031258,-0.09377 0.045181,-0.136576 0.044442,-0.134358 z m 5.6192957,0.04806 c 0.0035,-3.16e-4 0.0082,-2.82e-4 0.01395,0 0.02598,0.01521 0.03801,0.02446 0.04082,0.02894 v 5.17e-4 5.17e-4 5.17e-4 h 5.17e-4 v 5.16e-4 h -5.17e-4 v 5.17e-4 h -5.17e-4 v 5.17e-4 h -5.17e-4 -5.16e-4 c -0.0099,0.0021 -0.05575,-0.01576 -0.06201,-0.02584 v -5.17e-4 l -5.17e-4,-5.17e-4 v -5.16e-4 -5.17e-4 -5.17e-4 h 5.17e-4 v -5.17e-4 l 5.17e-4,-5.17e-4 5.16e-4,-5.16e-4 h 5.17e-4 c 0.0015,-7.97e-4 0.0038,-0.0018 0.0072,-0.0021 z m 0.280086,0.395324 h 5.17e-4 5.17e-4 5.16e-4 c 0.0038,-8.2e-5 0.01129,0.002 0.02325,0.0072 0.02191,0.02347 0.03123,0.03591 0.03256,0.04082 v 5.17e-4 5.17e-4 5.17e-4 h -5.17e-4 v 5.16e-4 h -5.17e-4 -5.16e-4 -5.17e-4 -5.17e-4 c -0.01125,-0.0023 -0.05342,-0.036 -0.05633,-0.04703 v -5.17e-4 -5.17e-4 -5.16e-4 -5.17e-4 h 5.17e-4 v -5.17e-4 h 5.16e-4 z m -2.099613,0.01137 v 5.17e-4 h -5.17e-4 -5.17e-4 v 5.17e-4 5.16e-4 5.17e-4 5.17e-4 c 0.0021,0.0061 0.01883,0.02478 0.06098,0.06356 0.0107,0.0038 0.01816,0.0052 0.0217,0.0047 l 5.17e-4,-5.17e-4 h 5.17e-4 l 5.17e-4,-5.17e-4 h 5.16e-4 v -5.16e-4 -5.17e-4 h 5.17e-4 v -5.17e-4 -5.17e-4 -5.16e-4 l -5.17e-4,-5.17e-4 v -5.17e-4 c -0.0055,-0.0156 -0.06905,-0.06344 -0.08268,-0.06615 h -5.17e-4 z m 0.692464,0.09664 c -0.0082,0.0012 -0.03591,0.01541 -0.0956,0.05323 -0.0083,0.01139 -0.0115,0.01915 -0.01137,0.02274 v 5.17e-4 h 5.16e-4 v 5.17e-4 l 5.17e-4,5.17e-4 v 5.16e-4 h 5.17e-4 5.17e-4 l 5.16e-4,5.17e-4 c 2.41e-4,3.4e-5 0.0013,-4e-6 0.0016,0 0.0197,-0.0015 0.100339,-0.0642 0.10542,-0.077 v -5.16e-4 -5.17e-4 h -5.17e-4 v -5.17e-4 h -5.17e-4 -5.17e-4 c -2.29e-4,1e-5 -7.61e-4,-3.9e-5 -10e-4,0 z m 0.117305,0.06925 c -0.0026,1.84e-4 -0.0055,4.19e-4 -0.0093,0.0016 -0.0072,0.02098 -0.0081,0.03274 -0.0062,0.03721 l 5.17e-4,5.17e-4 v 5.16e-4 h 5.17e-4 v 5.17e-4 h 5.17e-4 5.16e-4 l 5.17e-4,5.17e-4 h 5.17e-4 5.17e-4 c 2.9e-4,-3e-5 0.0012,-4.38e-4 0.0015,-5.17e-4 0.0094,-0.0036 0.02496,-0.02697 0.02067,-0.03669 l -5.17e-4,-5.17e-4 v -5.17e-4 h -5.17e-4 l -5.17e-4,-5.16e-4 v -5.17e-4 h -5.16e-4 l -5.17e-4,-5.17e-4 c -0.0018,-9.6e-4 -0.0045,-0.0013 -0.0078,-0.001 z m 1.054716,0.0078 -0.01912,0.07028 z M 13.61519,77.6981 c -0.0065,0.005 -0.03288,0.025 -0.05891,0.04496 0.05207,-0.03992 0.06542,-0.04995 0.05891,-0.04496 z m -1.217497,0.152962 c -0.0022,7.4e-4 -0.04946,0.01614 -0.134359,0.04444 0.09377,-0.03126 0.136577,-0.04518 0.134359,-0.04444 z m 8.200533,0.61495 h 5.17e-4 5.16e-4 5.17e-4 5.17e-4 5.17e-4 c 0.0031,9.05e-4 0.008,0.0055 0.01602,0.0155 2.66e-4,0.01107 -9.68e-4,0.01737 -0.0026,0.02015 v 5.17e-4 l -5.17e-4,5.17e-4 -5.17e-4,5.17e-4 h -5.17e-4 -5.16e-4 -5.17e-4 -5.17e-4 -5.17e-4 v -5.17e-4 c -2.27e-4,-1.26e-4 -0.0013,-8.62e-4 -0.0015,-0.001 l -5.17e-4,-5.16e-4 c -0.0062,-0.0066 -0.01326,-0.02688 -0.01137,-0.03359 l 5.17e-4,-5.17e-4 v -5.17e-4 h 5.17e-4 z m -0.287838,0.247013 c -0.0061,0.04331 -0.0038,0.06452 0.001,0.07131 l 5.16e-4,5.17e-4 5.17e-4,5.17e-4 h 5.17e-4 l 5.17e-4,5.17e-4 h 5.17e-4 l 5.16e-4,5.16e-4 h 5.17e-4 5.17e-4 5.17e-4 5.16e-4 l 5.17e-4,-5.16e-4 h 5.17e-4 5.17e-4 c 0.01506,-0.0072 0.03473,-0.07043 -0.0078,-0.07286 z m -0.05323,0.0677 c -0.007,0.0022 -0.02467,0.01436 -0.05839,0.04341 -0.0033,0.0088 -0.0043,0.01541 -0.0036,0.0186 l 5.17e-4,5.17e-4 5.16e-4,5.16e-4 v 5.17e-4 h 5.17e-4 v 5.17e-4 h 5.17e-4 v 5.17e-4 h 5.17e-4 5.16e-4 5.17e-4 5.17e-4 c 0.01433,-0.001 0.05939,-0.05128 0.0615,-0.06305 v -5.16e-4 -5.17e-4 h -5.17e-4 v -5.17e-4 h -5.17e-4 -5.16e-4 -5.17e-4 -5.17e-4 c -3.94e-4,5.8e-5 -5.36e-4,-1.58e-4 -10e-4,0 z m -4.947501,0.372587 c -0.0039,3.97e-4 -0.01021,0.0032 -0.01912,0.0088 -0.0309,0.05243 -0.041,0.07682 -0.04031,0.0832 v 5.17e-4 h 5.17e-4 v 5.17e-4 h 5.16e-4 5.17e-4 5.17e-4 5.17e-4 l 5.17e-4,-5.17e-4 c 0.01323,-0.0054 0.06273,-0.07155 0.06149,-0.08888 v -5.16e-4 c -6.8e-5,-2.2e-4 -4.22e-4,-8.39e-4 -5.16e-4,-0.001 v -5.17e-4 h -5.17e-4 V 79.1544 h -5.17e-4 v -5.17e-4 h -5.17e-4 -5.16e-4 c -2.33e-4,-5.8e-5 -0.0013,-4.88e-4 -0.0016,-5.17e-4 -2.92e-4,2e-6 -7.1e-4,-3.3e-5 -10e-4,0 z m 5.750553,0.01344 h 5.17e-4 5.17e-4 c 2.26e-4,2.7e-5 0.0013,4.61e-4 0.0015,5.17e-4 0.0086,0.0026 0.03112,0.01833 0.07545,0.05736 0.0018,0.0076 0.0017,0.01351 5.16e-4,0.01654 l -5.16e-4,5.17e-4 c -1.53e-4,2.08e-4 -8.61e-4,8.57e-4 -10e-4,0.001 l -5.17e-4,5.17e-4 -5.16e-4,5.17e-4 c -2.3e-4,8.4e-5 -0.0013,-5.6e-5 -0.0016,0 -5.28e-4,5.4e-5 -0.002,5.5e-5 -0.0026,0 -0.01995,-0.0035 -0.0709,-0.06051 -0.07338,-0.07441 v -5.17e-4 -5.17e-4 l 5.17e-4,-5.16e-4 v -5.17e-4 h 5.16e-4 z m -6.754109,0.174666 c -0.0099,0.0016 -0.02577,0.01334 -0.04651,0.04341 0.0474,-0.0018 0.06192,-0.03101 0.05529,-0.04082 -0.0018,-0.002 -0.0048,-0.0032 -0.0088,-0.0026 z m 0.425813,0.01395 c -0.0017,0.008 -0.0086,0.04024 -0.0155,0.07235 0.01389,-0.06425 0.01724,-0.08038 0.0155,-0.07235 z m -0.161747,0.03927 -0.04289,0.01189 z m -2.805513,0.263033 c -0.01486,0.0019 -0.04509,0.02354 -0.09095,0.08268 0.0744,-0.01445 0.107092,-0.06404 0.100769,-0.07906 l -5.17e-4,-5.16e-4 -5.16e-4,-5.17e-4 -5.17e-4,-5.17e-4 -5.17e-4,-5.17e-4 -5.17e-4,-5.16e-4 h -5.16e-4 l -5.17e-4,-5.17e-4 c -2.23e-4,-9.1e-5 -0.0013,-4.44e-4 -0.0016,-5.17e-4 h -5.16e-4 c -0.0011,-1.45e-4 -0.0028,-1.69e-4 -0.0041,0 z m 0.141076,0.09715 c 0.01935,-0.04514 0.0016,-0.004 -0.111104,0.258899 0.03529,-0.08236 0.09176,-0.213756 0.111104,-0.258899 z m 4.407483,0.117822 c 0.0091,-0.0015 0.02736,0.0044 0.05736,0.02584 -0.04005,0.01253 -0.06422,-0.0083 -0.06408,-0.01964 9.4e-5,-6.35e-4 2.48e-4,-0.002 5.17e-4,-0.0026 h 5.17e-4 v -5.16e-4 l 5.17e-4,-5.17e-4 5.16e-4,-5.17e-4 c 0.0011,-8.19e-4 0.0028,-0.0018 0.0047,-0.0021 z m -5.042069,0.05736 -0.07028,0.01912 z m 0.01189,0.05839 c 0.005,0.0065 0.025,0.03236 0.04496,0.0584 -0.03992,-0.05207 -0.04995,-0.06491 -0.04496,-0.0584 z m 1.393197,0.377755 c 0.0038,-6.23e-4 0.0097,-3.35e-4 0.0186,0.001 0.05377,0.03455 0.07649,0.05282 0.08062,0.05943 l 5.16e-4,5.17e-4 v 5.17e-4 5.17e-4 5.16e-4 h -5.16e-4 -5.17e-4 v 5.17e-4 h -5.17e-4 -5.17e-4 c -0.01393,2.59e-4 -0.09108,-0.03957 -0.101802,-0.05633 -1.35e-4,-2.51e-4 -4.16e-4,-0.0013 -5.17e-4,-0.0015 l -5.17e-4,-5.17e-4 v -5.17e-4 -5.17e-4 -5.16e-4 h 5.17e-4 v -5.17e-4 -5.17e-4 h 5.17e-4 v -5.17e-4 h 5.16e-4 c 2.04e-4,-1.28e-4 0.0013,-9.2e-4 0.0016,-0.001 5.78e-4,-1.93e-4 0.0013,-3.93e-4 0.0021,-5.17e-4 z m -6.1629315,0.0031 h 0.019637 z m 2.6954427,0.293005 c -0.081096,0.04671 -0.1139793,0.07128 -0.1193725,0.08061 -1.088e-4,2.37e-4 6.87e-5,0.0013 0,0.0016 h -5.168e-4 v 5.17e-4 h 5.168e-4 v 5.17e-4 5.17e-4 h 5.167e-4 v 5.17e-4 h 5.168e-4 c 1.853e-4,7e-5 0.00133,4.65e-4 0.00155,5.16e-4 H 9.09247 c 0.022407,0.0011 0.1416532,-0.05678 0.1162719,-0.08475 z m 2.5683188,0.189136 h 5.17e-4 c 2.02e-4,-3.5e-5 0.0013,8e-6 0.0015,0 2.53e-4,1.8e-5 0.0013,-4.6e-5 0.0015,0 0.0092,0.0022 0.03082,0.01726 0.0708,0.05478 -1.22e-4,0.0083 -0.0025,0.01459 -0.0052,0.01757 -2.35e-4,2.16e-4 -0.0013,8.48e-4 -0.0015,0.001 -2.63e-4,1.54e-4 -0.0013,9.1e-4 -0.0015,10e-4 -0.01963,0.0064 -0.06797,-0.05521 -0.06821,-0.07131 l 5.17e-4,-5.17e-4 v -5.16e-4 -5.17e-4 -5.17e-4 h 5.16e-4 v -5.17e-4 h 5.17e-4 z m -2.666504,0.172599 c -8.159e-4,1.26e-4 -0.00151,3.23e-4 -0.00207,5.17e-4 l -5.168e-4,5.16e-4 h -5.168e-4 v 5.17e-4 h -5.167e-4 v 5.17e-4 5.17e-4 5.17e-4 5.16e-4 l 5.167e-4,5.17e-4 c 0.00725,0.0083 0.049793,0.0245 0.059945,0.02325 h 5.168e-4 5.167e-4 5.168e-4 v -5.16e-4 h 5.167e-4 v -5.17e-4 h 5.168e-4 v -5.17e-4 l -5.168e-4,-5.17e-4 V 81.0488 c -0.00219,-0.0036 -0.011915,-0.01107 -0.033073,-0.02326 -0.013196,-0.0018 -0.021487,-0.0022 -0.025838,-0.0015 z m -4.9878092,0.49196 c -0.00651,0.005 -0.032363,0.025 -0.058394,0.04496 0.052073,-0.03992 0.064905,-0.04995 0.058394,-0.04496 z m -2.1326864,0.302823 -0.05116,0.02894 z m -0.3064412,0.112138 c -0.00443,0.0068 -0.032717,0.05109 -0.072347,0.112138 0.057333,-0.08832 0.076773,-0.118956 0.072347,-0.112138 z m -0.6056478,0.342615 -0.01602,0.04496 z m 1.379244,0.171049 c -0.00337,1.77e-4 -0.0077,0.0012 -0.013953,0.0031 -0.04772,0.04385 -0.066834,0.06503 -0.069246,0.07183 v 5.17e-4 5.16e-4 5.17e-4 h 5.168e-4 v 5.17e-4 h 5.167e-4 5.168e-4 5.168e-4 5.167e-4 l 5.168e-4,-5.17e-4 c 0.015643,-0.0042 0.081755,-0.05488 0.086816,-0.07183 4.89e-5,-2.48e-4 4.989e-4,-0.0013 5.168e-4,-0.0015 v -5.17e-4 H 2.463934 v -5.17e-4 -5.17e-4 l -5.168e-4,-5.16e-4 h -5.167e-4 v -5.17e-4 H 2.462382 c -2.234e-4,-9.4e-5 -0.00129,-4.45e-4 -0.00155,-5.17e-4 -9e-4,-1.48e-4 -0.00235,-6.6e-5 -0.00362,0 z m -1.4397054,0.190169 -0.0294556,0.03721 z m -0.13487554,0.06666 -0.0273885,0.05271 z m -0.41186116,0.86403 v 5.17e-4 l -5.1677e-4,5.16e-4 c -0.00254,0.0051 -0.004162,0.03102 -0.003617,0.09405 0.001447,0.0024 0.002957,0.0042 0.004134,0.0052 1.8899e-4,1.28e-4 0.001368,4.24e-4 0.00155,5.17e-4 h 5.1677e-4 5.1676e-4 5.1676e-4 5.1677e-4 l 5.1676e-4,-5.17e-4 5.1677e-4,-5.17e-4 v -5.16e-4 l 5.1676e-4,-5.17e-4 c 0.007675,-0.01413 0.001706,-0.08643 -0.003617,-0.09767 v -5.16e-4 l -5.1676e-4,-5.17e-4 h -5.1677e-4 z m -0.0826823,0.0088 c -0.003236,1.29e-4 -0.007589,5.96e-4 -0.0134359,0.0021 -0.0403127,0.03279 -0.056929,0.04952 -0.0594279,0.05529 v 5.16e-4 5.17e-4 5.17e-4 h 5.148e-4 v 5.17e-4 h 5.1677e-4 5.1676e-4 5.1676e-4 c 0.0118344,-9e-4 0.0709608,-0.0401 0.0775147,-0.05478 l 5.1677e-4,-5.17e-4 v -5.17e-4 -5.17e-4 -5.16e-4 -5.17e-4 l -5.1677e-4,-5.17e-4 v -5.17e-4 h -5.1676e-4 v -5.16e-4 h -5.1677e-4 c -1.9158e-4,-9e-5 -0.001325,-4.44e-4 -0.00155,-5.17e-4 -0.001038,-2.26e-4 -0.002516,-6.5e-5 -0.004134,0 z m 0.0728638,0.06046 c -0.004803,0.0068 -0.0243237,0.03409 -0.0434082,0.06098 0.0382975,-0.05397 0.0482115,-0.06775 0.0434082,-0.06098 z m 0.3141927,0.673861 0.0211873,0.0062 z m 0.8841817,0.145207 c -0.00104,0.0015 -0.029368,0.0421 -0.081649,0.116789 0.05643,-0.08061 0.082686,-0.118271 0.081649,-0.116789 z m 6.2270101,0.173116 c -0.015684,0.04096 -0.030148,0.04906 -0.037207,0.04444 -0.00988,-0.0086 -0.00368,-0.04599 0.037207,-0.04444 z m -4.663798,0.0217 -0.03514,0.03152 z m -0.1229899,0.03514 -0.01757,0.0217 z m 0.03669,0.145727 c -0.00271,0.0075 -0.014045,0.03802 -0.025322,0.06925 0.022129,-0.06128 0.028035,-0.07676 0.025322,-0.06925 z m 0.1250569,0.08062 -0.042891,0.01189 z m 2.2499919,0.09612 -0.013436,0.04082 z m 1.9513021,0.19327 v 0.04082 z m 42.3565877,4.010091 c 0.09037,0.01049 0.180915,0.02122 0.271302,0.03152 -0.221827,0.0061 -0.444283,0.0072 -0.667143,0.0031 0.13211,-0.01017 0.264037,-0.02177 0.395841,-0.03462 z m -8.053772,0.411861 c 0.0038,-5.47e-4 0.01011,5.25e-4 0.01964,0.0036 0.03901,0.04106 0.05273,0.06113 0.05323,0.06718 v 5.16e-4 5.17e-4 h -5.17e-4 v 5.17e-4 h -5.16e-4 -5.17e-4 -5.17e-4 -5.17e-4 c -0.01362,-0.0019 -0.07297,-0.05143 -0.07493,-0.0677 -2e-6,-2.35e-4 -2.5e-5,-0.0013 0,-0.0015 l 5.17e-4,-5.17e-4 v -5.17e-4 h 5.17e-4 v -5.17e-4 l 5.17e-4,-5.16e-4 h 5.17e-4 l 5.16e-4,-5.17e-4 c 4.9e-4,-1.76e-4 0.0014,-4.26e-4 0.0021,-5.17e-4 z m -0.416512,0.321427 h 5.17e-4 5.17e-4 5.17e-4 c 0.0043,-2.65e-4 0.01531,0.0018 0.03617,0.0083 0.01438,0.01017 0.02135,0.017 0.02325,0.02015 v 5.17e-4 h 5.17e-4 v 5.17e-4 5.17e-4 h -5.17e-4 v 5.16e-4 h -5.16e-4 -5.17e-4 -5.17e-4 c -0.01001,2.28e-4 -0.05447,-0.02106 -0.05994,-0.02842 l -5.17e-4,-5.16e-4 v -5.17e-4 l 5.17e-4,-5.17e-4 h 5.16e-4 z m -0.45837,0.02635 c 0.01081,-0.0013 0.03153,0.0073 0.0584,0.03669 -0.05582,-9.3e-4 -0.07225,-0.02559 -0.06408,-0.03411 0.0014,-0.0011 0.0033,-0.0023 0.0057,-0.0026 z m -12.705167,0.0584 c 0.0013,-0.0015 -0.0301,0.03479 -0.09767,0.113171 0.06247,-0.07246 0.09639,-0.111691 0.09767,-0.113171 z m 12.438517,0.09405 c 2.38e-4,-5e-5 0.0013,3.1e-5 0.0016,0 0.01044,-4.98e-4 0.03034,0.01416 0.05994,0.05995 -0.05381,0.01448 -0.07699,-0.04333 -0.06563,-0.05736 l 5.17e-4,-5.17e-4 5.16e-4,-5.17e-4 5.17e-4,-5.17e-4 h 5.17e-4 c 2.03e-4,-1.02e-4 0.0013,-4.31e-4 0.0015,-5.16e-4 z m -14.356746,0.198954 -0.02894,0.03307 z m -0.21084,0.09767 -0.03721,0.02532 z m 7.994344,0.548803 -0.01964,0.03721 z m 6.277653,0.313159 c -0.0034,0.0079 -0.02469,0.05694 -0.05323,0.122474 0.04233,-0.0972 0.05668,-0.130392 0.05323,-0.122474 z m -6.054928,0.159164 0.0155,0.02584 z m 1.785938,0.402043 c -0.0078,-0.0042 0.03663,0.02 0.157096,0.08475 -0.08913,-0.04791 -0.149262,-0.08054 -0.157096,-0.08475 z" />
  </g>
</svg>
