<svg xmlns="http://www.w3.org/2000/svg" viewBox="0 0 16 16" fill="#000000" aria-hidden="true" id="Moon--Streamline-Heroicons" height="16" width="16">
  <desc>
    Moon Streamline Icon: https://streamlinehq.com
  </desc>
  <path fill-rule="evenodd" d="M6.352 1.1453333333333333a0.5 0.5 0 0 1 0.108 0.5459999999999999A5.98 5.98 0 0 0 6 4a6 6 0 0 0 6 6 5.98 5.98 0 0 0 2.3086666666666664 -0.45999999999999996 0.5 0.5 0 0 1 0.6539999999999999 0.6533333333333333 7.002 7.002 0 0 1 -6.462666666666667 4.306666666666667c-3.866 0 -7 -3.1333333333333333 -7 -7 0 -2.912 1.7779999999999998 -5.4079999999999995 4.306666666666667 -6.462666666666667a0.5 0.5 0 0 1 0.5453333333333332 0.108Z" clip-rule="evenodd" stroke-width="0.6667"></path>
</svg>